# xmcd
# Track frame offsets:
# 150
# 15020
# 29757
# 44267
# 58468
# 78092
# 97835
# 113857
# 133285
# 152275
#
# Disc length: 2174 seconds
# Revision: 0
# Processed by: cddbd v1.5.2PL0 Copyright (c) Steve Scherf et al.
# Submitted via: VisiTrax 2.11.3.279 - For more info visit www.synapsa.com
#
DISCID=73087c0a
DTITLE=Blowfly Farm - Blowfly Farm
DYEAR=2015
DGENRE=
TTITLE0=Outback Nights
TTITLE1=Aussie Pivot
TTITLE2=My Old Dog Ben
TTITLE3=Old Habits Die Hard
TTITLE4=Sound of the Wild
TTITLE5=Wide Open Land
TTITLE6=Adios So Long
TTITLE7=Just to See You Again
TTITLE8=Lonesome Billabong
TTITLE9=Still Rockin
EXTD=
EXTT0=
EXTT1=
EXTT2=
EXTT3=
EXTT4=
EXTT5=
EXTT6=
EXTT7=
EXTT8=
EXTT9=
PLAYORDER=
